<?xml version="1.0" encoding="utf-8"?>
<!-- Generator: Adobe Illustrator 20.0.0, SVG Export Plug-In . SVG Version: 6.00 Build 0)  -->
<svg version="1.0" id="Layer_1" xmlns="http://www.w3.org/2000/svg" xmlns:xlink="http://www.w3.org/1999/xlink" x="0px" y="0px"
	 width="164.3px" height="56.8px" viewBox="0 0 164.3 56.8" enable-background="new 0 0 164.3 56.8" xml:space="preserve">
<g>
	<g>
		<path fill="#EF3F25" d="M56.7,13.4c0.7,0,1.2,0.2,1.3,0.6c0.1,0.2,0.1,0.5,0.1,0.8s0,0.6-0.1,0.8c-0.1,0.2-0.2,0.3-0.3,0.4
			c-0.2,0.1-0.6,0.2-1,0.2l-1-0.1v4.3c0,0.4-0.1,0.7-0.2,0.9s-0.3,0.3-0.5,0.4c-0.1,0.1-0.4,0.1-0.7,0.1s-0.6,0-0.8-0.1
			c-0.2-0.1-0.3-0.2-0.4-0.3C53,21.2,53,21.1,52.9,21c0-0.1,0-0.3,0-0.6v-4.3h-0.6c-0.3,0-0.5-0.1-0.6-0.2c-0.2-0.2-0.3-0.6-0.3-1.2
			c0-0.9,0.3-1.3,0.9-1.3h0.5v-0.9c0-0.8,0.3-1.6,0.9-2.2c0.6-0.7,1.4-1,2.6-1c0.2,0,0.4,0,0.6,0c0.1,0,0.3,0.1,0.4,0.2
			c0.3,0.1,0.4,0.6,0.4,1.2c0,0.5-0.1,0.9-0.3,1.1c-0.2,0.2-0.4,0.3-0.7,0.3c-0.1,0-0.2,0-0.5,0c-0.4,0-0.6,0.1-0.6,0.4v0.9
			L56.7,13.4z"/>
		<path fill="#EF3F25" d="M59.2,14.4c0.9-0.8,1.9-1.3,3.1-1.3s2.2,0.4,3.1,1.2c0.9,0.8,1.3,1.9,1.3,3.2c0,0.9-0.2,1.7-0.7,2.4
			s-1,1.2-1.7,1.5c-0.7,0.3-1.3,0.5-2,0.5s-1.4-0.2-2.1-0.5s-1.2-0.9-1.7-1.5c-0.5-0.7-0.7-1.4-0.7-2.3
			C57.8,16.3,58.3,15.2,59.2,14.4z M61.2,18.7c0.3,0.3,0.7,0.4,1,0.4s0.7-0.1,1.1-0.4c0.4-0.3,0.5-0.7,0.5-1.2s-0.2-0.9-0.5-1.2
			s-0.7-0.4-1.1-0.4s-0.7,0.1-1.1,0.4c-0.3,0.3-0.5,0.7-0.5,1.2C60.7,18.1,60.8,18.5,61.2,18.7z"/>
		<path fill="#EF3F25" d="M68.2,14.4c0.9-0.8,1.9-1.3,3.1-1.3s2.2,0.4,3.1,1.2c0.9,0.8,1.3,1.9,1.3,3.2c0,0.9-0.2,1.7-0.7,2.4
			s-1,1.2-1.7,1.5s-1.3,0.5-2,0.5s-1.4-0.2-2.1-0.5s-1.2-0.9-1.7-1.5c-0.5-0.7-0.7-1.4-0.7-2.3C66.8,16.3,67.3,15.2,68.2,14.4z
			 M70.2,18.7c0.3,0.3,0.7,0.4,1,0.4s0.7-0.1,1.1-0.4c0.4-0.3,0.5-0.7,0.5-1.2s-0.2-0.9-0.5-1.2s-0.7-0.4-1.1-0.4s-0.7,0.1-1.1,0.4
			c-0.3,0.3-0.5,0.7-0.5,1.2C69.7,18.1,69.8,18.5,70.2,18.7z"/>
		<path fill="#EF3F25" d="M81.7,9.8c0.1-0.2,0.2-0.3,0.4-0.3c0.2-0.1,0.5-0.1,0.8-0.1s0.6,0,0.8,0.1c0.2,0.1,0.3,0.2,0.4,0.3
			c0.1,0.2,0.1,0.3,0.1,0.4s0,0.3,0,0.6v9.6c0,0.2,0,0.4,0,0.6c0,0.1-0.1,0.3-0.2,0.4c-0.2,0.3-0.6,0.4-1.4,0.4
			c-0.7,0-1.2-0.3-1.2-0.8c-0.5,0.5-1.1,0.8-1.9,0.8c-1,0-1.8-0.4-2.6-1.3c-0.8-0.8-1.2-1.8-1.2-2.9c0-1.1,0.4-2.1,1.2-3
			c0.8-0.8,1.7-1.3,2.6-1.3c0.8,0,1.4,0.3,1.8,0.8v-3.3c0-0.2,0-0.4,0-0.6C81.6,10.1,81.7,10,81.7,9.8z M79.1,18.6
			c0.3,0.3,0.6,0.4,1,0.4s0.7-0.1,1-0.4c0.3-0.3,0.4-0.6,0.4-1c0-0.3-0.1-0.7-0.4-1s-0.6-0.5-1-0.5s-0.8,0.1-1,0.4
			c-0.3,0.3-0.4,0.6-0.4,1C78.7,18,78.8,18.3,79.1,18.6z"/>
		<path fill="#EF3F25" d="M94.7,13.4c0.7,0,1.2,0.2,1.3,0.6c0.1,0.2,0.1,0.5,0.1,0.8s0,0.6-0.1,0.8c-0.1,0.2-0.2,0.3-0.3,0.4
			c-0.2,0.1-0.6,0.2-1,0.2l-1-0.1v4.3c0,0.4-0.1,0.7-0.2,0.9s-0.3,0.3-0.5,0.4c-0.2,0.1-0.5,0.1-0.8,0.1s-0.6,0-0.8-0.1
			c-0.2-0.1-0.3-0.2-0.4-0.3c-0.1-0.2-0.1-0.3-0.2-0.4c0-0.1,0-0.3,0-0.6v-4.3h-0.6c-0.3,0-0.5-0.1-0.6-0.2
			c-0.2-0.2-0.3-0.6-0.3-1.2c0-0.9,0.3-1.3,0.9-1.3h0.5v-0.9c0-0.8,0.3-1.6,0.9-2.2c0.6-0.7,1.4-1,2.6-1c0.2,0,0.4,0,0.6,0
			c0.1,0,0.3,0.1,0.4,0.2c0.3,0.1,0.4,0.6,0.4,1.2c0,0.5-0.1,0.9-0.3,1.1c-0.2,0.2-0.4,0.3-0.7,0.3c-0.1,0-0.2,0-0.5,0
			c-0.4,0-0.6,0.1-0.6,0.4v0.9L94.7,13.4z"/>
		<path fill="#EF3F25" d="M99,11.8c-0.1,0.2-0.2,0.3-0.4,0.3c-0.2,0.1-0.5,0.1-0.8,0.1s-0.6,0-0.8-0.1c-0.2-0.1-0.3-0.2-0.4-0.3
			c-0.1-0.2-0.1-0.3-0.1-0.4s0-0.3,0-0.6c0-0.2,0-0.4,0-0.6c0-0.1,0.1-0.3,0.1-0.4c0.2-0.3,0.6-0.4,1.3-0.4c0.7,0,1.1,0.1,1.2,0.4
			c0.1,0.2,0.1,0.3,0.2,0.4c0,0.1,0,0.3,0,0.6c0,0.2,0,0.4,0,0.6C99.1,11.5,99.1,11.6,99,11.8z M96.3,14.8c0-0.2,0-0.4,0-0.6
			c0-0.1,0.1-0.3,0.1-0.4c0.2-0.3,0.6-0.4,1.3-0.4c0.5,0,0.9,0.1,1.1,0.3c0.2,0.2,0.3,0.4,0.3,0.7c0,0.1,0,0.3,0,0.5v5.6
			c0,0.2,0,0.4,0,0.6c0,0.1-0.1,0.3-0.2,0.4c-0.1,0.3-0.6,0.4-1.2,0.4c-0.7,0-1.1-0.1-1.2-0.4c-0.1-0.2-0.1-0.3-0.1-0.4
			c0-0.1,0-0.3,0-0.6v-5.7H96.3z"/>
		<path fill="#EF3F25" d="M104.5,13.4c1.1,0,2,0.4,2.7,1.2c0.7,0.8,1.1,1.8,1.1,3v2.8c0,0.2,0,0.4,0,0.6c0,0.1-0.1,0.3-0.1,0.4
			c-0.2,0.3-0.6,0.4-1.3,0.4c-0.8,0-1.2-0.2-1.3-0.6c-0.1-0.2-0.1-0.5-0.1-0.8v-2.8c0-0.4-0.1-0.8-0.4-1s-0.6-0.4-1-0.4
			s-0.8,0.1-1,0.4c-0.3,0.3-0.4,0.6-0.4,1v2.8c0,0.2,0,0.4,0,0.6c0,0.1-0.1,0.3-0.2,0.4c-0.1,0.3-0.6,0.4-1.2,0.4
			c-0.7,0-1.1-0.1-1.2-0.4c-0.1-0.2-0.1-0.3-0.1-0.4c0-0.1,0-0.3,0-0.6v-5.7c0-0.2,0-0.4,0-0.5s0.1-0.3,0.2-0.4
			c0.1-0.3,0.6-0.4,1.2-0.4c0.7,0,1.1,0.1,1.2,0.4c0.1,0.2,0.2,0.4,0.2,0.7c0-0.1,0.1-0.2,0.3-0.3c0.1-0.1,0.3-0.3,0.4-0.3
			C103.7,13.5,104.1,13.4,104.5,13.4z"/>
		<path fill="#EF3F25" d="M114.2,9.8c0.1-0.2,0.2-0.3,0.4-0.3c0.2-0.1,0.5-0.1,0.8-0.1s0.6,0,0.8,0.1s0.3,0.2,0.4,0.3
			c0.1,0.2,0.1,0.3,0.1,0.4s0,0.3,0,0.6v9.6c0,0.2,0,0.4,0,0.6c0,0.1-0.1,0.3-0.2,0.4c-0.2,0.3-0.6,0.4-1.4,0.4
			c-0.7,0-1.2-0.3-1.2-0.8c-0.5,0.5-1.1,0.8-1.9,0.8c-1,0-1.8-0.4-2.6-1.3c-0.8-0.8-1.2-1.8-1.2-2.9c0-1.1,0.4-2.1,1.2-3
			c0.8-0.8,1.7-1.3,2.6-1.3c0.8,0,1.4,0.3,1.8,0.8v-3.3c0-0.2,0-0.4,0-0.6C114.1,10.1,114.2,10,114.2,9.8z M111.6,18.6
			c0.3,0.3,0.6,0.4,1,0.4s0.7-0.1,1-0.4c0.3-0.3,0.4-0.6,0.4-1c0-0.3-0.1-0.7-0.4-1c-0.3-0.3-0.6-0.5-1-0.5s-0.8,0.1-1,0.4
			c-0.3,0.3-0.4,0.6-0.4,1C111.2,18,111.4,18.3,111.6,18.6z"/>
		<path fill="#EF3F25" d="M125.7,16.6c0,0.7-0.2,1.1-0.5,1.5c-0.3,0.3-0.7,0.5-1.1,0.5h-3.8c0,0.3,0.2,0.6,0.5,0.8
			c0.4,0.2,0.7,0.3,1.1,0.3c0.6,0,1.1-0.1,1.5-0.2l0.2-0.1c0.3-0.1,0.5-0.2,0.6-0.2c0.3,0,0.6,0.2,0.9,0.7c0.1,0.3,0.2,0.5,0.2,0.7
			c0,1-1.1,1.4-3.4,1.4c-0.8,0-1.5-0.1-2.1-0.4s-1.1-0.6-1.4-1.1c-0.7-0.9-1-1.8-1-2.9c0-1.3,0.4-2.4,1.3-3.2c0.9-0.8,2-1.2,3.3-1.2
			c1.5,0,2.6,0.5,3.3,1.6C125.5,15.3,125.7,15.9,125.7,16.6z M122.3,17c0.4,0,0.6-0.2,0.6-0.5c0-0.2-0.1-0.4-0.3-0.6
			c-0.2-0.2-0.5-0.2-0.8-0.2s-0.7,0.1-1,0.4c-0.3,0.3-0.5,0.6-0.5,0.9C120.3,17,122.3,17,122.3,17z"/>
		<path fill="#EF3F25" d="M131.9,13.4c0.2,0.1,0.4,0.2,0.5,0.3c0.1,0.2,0.2,0.4,0.2,0.7c0,0.3-0.1,0.7-0.3,1.1
			c-0.2,0.4-0.5,0.6-0.9,0.6c-0.2,0-0.4,0-0.6-0.1c-0.2-0.1-0.4-0.1-0.7-0.1s-0.6,0.1-0.8,0.3c-0.3,0.2-0.4,0.5-0.4,0.7v3.4
			c0,0.2,0,0.4,0,0.6c0,0.1-0.1,0.3-0.2,0.4c-0.2,0.3-0.6,0.4-1.3,0.4c-0.5,0-0.9-0.1-1.1-0.3c-0.2-0.1-0.3-0.4-0.3-0.7
			c0-0.1,0-0.3,0-0.5v-5.4c0-0.2,0-0.4,0-0.6c0-0.1,0.1-0.3,0.1-0.4c0.2-0.3,0.6-0.4,1.3-0.4c0.6,0,1,0.1,1.2,0.4
			c0.1,0.2,0.2,0.3,0.2,0.5c0.1-0.1,0.1-0.2,0.2-0.3c0.1-0.1,0.3-0.3,0.7-0.4c0.3-0.2,0.6-0.3,0.9-0.3c0.3,0,0.5,0,0.6,0
			C131.5,13.3,131.7,13.4,131.9,13.4z"/>
		<path fill="#5C9A42" d="M144.8,13.7c0.4,0.3,0.6,0.5,0.6,0.7c0,0.1-0.1,0.3-0.3,0.6l-2.4,3.6v2.2c0,0.2,0,0.3,0,0.4
			c0,0.1,0,0.2-0.1,0.3s-0.2,0.2-0.3,0.2s-0.3,0.1-0.6,0.1c-0.2,0-0.4,0-0.6-0.1c-0.1,0-0.2-0.1-0.3-0.2c-0.1-0.1-0.1-0.2-0.1-0.3
			s0-0.2,0-0.4v-2.1l-2.4-3.6c-0.2-0.3-0.3-0.5-0.3-0.6c0-0.2,0.2-0.5,0.5-0.7s0.6-0.3,0.7-0.3c0.1,0,0.3,0,0.3,0.1
			c0.1,0.1,0.3,0.2,0.4,0.5l1.7,2.8l1.7-2.8c0.1-0.2,0.3-0.4,0.4-0.4c0.1-0.1,0.2-0.1,0.4-0.1C144.2,13.4,144.5,13.5,144.8,13.7z"/>
		<path fill="#5C9A42" d="M152.5,13.7c0.4,0.3,0.6,0.5,0.6,0.7c0,0.1-0.1,0.3-0.3,0.6l-2.4,3.6v2.2c0,0.2,0,0.3,0,0.4
			c0,0.1,0,0.2-0.1,0.3s-0.2,0.2-0.3,0.2s-0.3,0.1-0.6,0.1c-0.2,0-0.4,0-0.6-0.1c-0.1,0-0.2-0.1-0.3-0.2c-0.1-0.1-0.1-0.2-0.1-0.3
			s0-0.2,0-0.4v-2.1l-2.4-3.6c-0.2-0.3-0.3-0.5-0.3-0.6c0-0.2,0.2-0.5,0.5-0.7s0.6-0.3,0.7-0.3c0.1,0,0.3,0,0.3,0.1
			c0.1,0.1,0.3,0.2,0.4,0.5l1.7,2.8l1.7-2.8c0.1-0.2,0.3-0.4,0.4-0.4c0.1-0.1,0.2-0.1,0.4-0.1C152,13.4,152.2,13.5,152.5,13.7z"/>
		<path fill="#5C9A42" d="M158.1,19.7l0.2-0.1c0.3-0.2,0.4-0.2,0.5-0.2c0.2,0,0.5,0.2,0.8,0.6c0.2,0.3,0.2,0.5,0.2,0.6
			s-0.1,0.3-0.2,0.4c-0.1,0.1-0.2,0.2-0.4,0.3c-0.1,0.1-0.3,0.2-0.4,0.2c-0.1,0.1-0.4,0.2-0.8,0.3c-0.4,0.1-0.8,0.2-1.1,0.2
			c-0.4,0-0.7,0-1.1-0.1c-0.4-0.1-0.7-0.3-1.1-0.5c-0.4-0.2-0.7-0.5-1-0.8s-0.6-0.7-0.8-1.2s-0.3-1-0.3-1.6s0.1-1.1,0.3-1.6
			c0.2-0.5,0.4-0.9,0.8-1.2c0.3-0.3,0.7-0.6,1-0.8c0.7-0.4,1.5-0.6,2.2-0.6c0.4,0,0.7,0.1,1.1,0.2c0.4,0.1,0.6,0.2,0.8,0.3l0.3,0.2
			c0.1,0.1,0.2,0.2,0.3,0.2c0.2,0.2,0.3,0.3,0.3,0.5s-0.1,0.4-0.2,0.6c-0.3,0.4-0.6,0.6-0.8,0.6c-0.1,0-0.3-0.1-0.6-0.2
			c-0.3-0.3-0.7-0.4-1.3-0.4c-0.5,0-1,0.2-1.4,0.5c-0.2,0.2-0.4,0.4-0.6,0.7c-0.2,0.3-0.2,0.6-0.2,1s0.1,0.7,0.2,1
			c0.2,0.3,0.3,0.5,0.6,0.7c0.5,0.3,0.9,0.5,1.4,0.5c0.2,0,0.5,0,0.7-0.1C157.8,19.8,158,19.7,158.1,19.7z"/>
	</g>
	<g>
		<g>
			<path fill="#6E6F71" d="M57.1,37.4l0.2-0.1c0.2-0.1,0.4-0.2,0.5-0.2c0.2,0,0.4,0.2,0.7,0.5c0.1,0.2,0.2,0.4,0.2,0.5
				s0,0.2-0.1,0.3s-0.2,0.2-0.3,0.2c-0.1,0.1-0.2,0.1-0.3,0.2c-0.1,0.1-0.3,0.1-0.7,0.3c-0.3,0.1-0.6,0.2-1,0.2
				c-0.3,0-0.6,0-0.9-0.1s-0.6-0.2-1-0.4c-0.3-0.2-0.6-0.4-0.9-0.7S53,37.5,52.8,37c-0.2-0.4-0.3-0.9-0.3-1.4s0.1-1,0.3-1.4
				c0.2-0.4,0.4-0.8,0.6-1c0.3-0.3,0.6-0.5,0.9-0.7c0.6-0.3,1.3-0.5,1.9-0.5c0.3,0,0.6,0,0.9,0.1s0.6,0.2,0.7,0.3l0.2,0.1
				c0.1,0.1,0.2,0.1,0.3,0.2c0.2,0.1,0.3,0.3,0.3,0.5s-0.1,0.4-0.2,0.5c-0.3,0.4-0.5,0.5-0.7,0.5c-0.1,0-0.3-0.1-0.5-0.2
				c-0.3-0.2-0.6-0.3-1.1-0.3c-0.4,0-0.8,0.1-1.2,0.4c-0.2,0.1-0.4,0.3-0.5,0.6s-0.2,0.6-0.2,0.9c0,0.3,0.1,0.6,0.2,0.9
				c0.1,0.3,0.3,0.5,0.5,0.6c0.4,0.3,0.8,0.4,1.2,0.4c0.2,0,0.4,0,0.6-0.1C56.9,37.5,57,37.4,57.1,37.4z"/>
			<path fill="#6E6F71" d="M59.9,34.7c0.5-0.5,1.2-0.8,1.9-0.8c0.7,0,1.3,0.3,1.9,0.8c0.5,0.5,0.8,1.1,0.8,1.9c0,0.5-0.1,1-0.4,1.4
				c-0.3,0.4-0.6,0.7-1,0.9s-0.8,0.3-1.2,0.3c-0.4,0-0.8-0.1-1.2-0.3c-0.4-0.2-0.7-0.5-1-0.9s-0.4-0.9-0.4-1.4
				C59.1,35.9,59.4,35.2,59.9,34.7z M61.1,37.4c0.2,0.2,0.4,0.2,0.6,0.2s0.4-0.1,0.6-0.2c0.2-0.2,0.3-0.4,0.3-0.7s-0.1-0.6-0.3-0.7
				c-0.2-0.2-0.4-0.2-0.7-0.2c-0.2,0-0.5,0.1-0.7,0.2c-0.2,0.2-0.3,0.4-0.3,0.7C60.8,37,60.9,37.2,61.1,37.4z"/>
			<path fill="#6E6F71" d="M67.9,34.1c0.6,0,1.2,0.2,1.6,0.7s0.6,1.1,0.6,1.8v1.7c0,0.1,0,0.3,0,0.3c0,0.1,0,0.2-0.1,0.2
				c-0.1,0.2-0.3,0.3-0.8,0.3s-0.7-0.1-0.8-0.4c0-0.1-0.1-0.3-0.1-0.5v-1.7c0-0.3-0.1-0.5-0.2-0.6c-0.2-0.1-0.4-0.2-0.6-0.2
				c-0.3,0-0.5,0.1-0.6,0.2c-0.2,0.2-0.2,0.4-0.2,0.6v1.7c0,0.1,0,0.3,0,0.3c0,0.1,0,0.2-0.1,0.2c-0.1,0.2-0.3,0.3-0.7,0.3
				c-0.4,0-0.7-0.1-0.7-0.3c0-0.1-0.1-0.2-0.1-0.3s0-0.2,0-0.3v-3.4c0-0.1,0-0.3,0-0.3c0-0.1,0-0.2,0.1-0.2c0.1-0.2,0.3-0.2,0.7-0.2
				c0.4,0,0.6,0.1,0.7,0.2c0.1,0.1,0.1,0.2,0.1,0.4c0,0,0.1-0.1,0.2-0.2c0.1-0.1,0.2-0.2,0.3-0.2C67.4,34.2,67.7,34.1,67.9,34.1z"/>
			<path fill="#6E6F71" d="M73.8,34.1c0.6,0,1.2,0.2,1.6,0.7s0.6,1.1,0.6,1.8v1.7c0,0.1,0,0.3,0,0.3c0,0.1,0,0.2-0.1,0.2
				c-0.1,0.2-0.3,0.3-0.8,0.3s-0.7-0.1-0.8-0.4c0-0.1-0.1-0.3-0.1-0.5v-1.7c0-0.3-0.1-0.5-0.2-0.6c-0.2-0.1-0.4-0.2-0.6-0.2
				c-0.3,0-0.5,0.1-0.6,0.2c-0.1,0.3-0.1,0.5-0.1,0.7v1.7c0,0.1,0,0.3,0,0.3c0,0.1,0,0.2-0.1,0.2c-0.1,0.2-0.3,0.3-0.7,0.3
				c-0.4,0-0.7-0.1-0.7-0.3c0-0.1-0.1-0.2-0.1-0.3s0-0.2,0-0.3v-3.4c0-0.1,0-0.3,0-0.3c0-0.1,0-0.2,0.1-0.2c0.1-0.2,0.3-0.2,0.7-0.2
				c0.4,0,0.6,0.1,0.7,0.2c0.1,0.1,0.1,0.2,0.1,0.4c0,0,0.1-0.1,0.2-0.2c0.1-0.1,0.2-0.2,0.3-0.2C73.3,34.2,73.5,34.1,73.8,34.1z"/>
			<path fill="#6E6F71" d="M81.8,36.1c0,0.4-0.1,0.7-0.3,0.9c-0.2,0.2-0.4,0.3-0.7,0.3h-2.3c0,0.2,0.1,0.3,0.3,0.5
				c0.2,0.1,0.4,0.2,0.6,0.2c0.4,0,0.7,0,0.9-0.1h0.1c0.2-0.1,0.3-0.1,0.4-0.1c0.2,0,0.4,0.1,0.5,0.4c0.1,0.2,0.1,0.3,0.1,0.4
				c0,0.6-0.7,0.9-2.1,0.9c-0.5,0-0.9-0.1-1.3-0.2c-0.4-0.2-0.7-0.4-0.9-0.7c-0.4-0.5-0.6-1.1-0.6-1.8c0-0.8,0.3-1.5,0.8-2
				s1.2-0.7,2-0.7c0.9,0,1.6,0.3,2,1C81.7,35.3,81.8,35.7,81.8,36.1z M79.7,36.3c0.2,0,0.4-0.1,0.4-0.3c0-0.1-0.1-0.3-0.2-0.4
				c-0.1-0.1-0.3-0.1-0.5-0.1s-0.4,0.1-0.6,0.3s-0.3,0.4-0.3,0.5H79.7z"/>
			<path fill="#6E6F71" d="M84,36.7c0,0.3,0.1,0.5,0.3,0.6c0.2,0.2,0.4,0.2,0.6,0.2s0.4-0.1,0.6-0.2c0.2-0.1,0.3-0.2,0.4-0.2
				c0.2,0,0.4,0.2,0.7,0.5c0.1,0.2,0.2,0.4,0.2,0.5c0,0.2-0.2,0.5-0.5,0.7c-0.4,0.3-0.8,0.4-1.4,0.4s-1.2-0.2-1.7-0.7
				c-0.3-0.2-0.5-0.5-0.7-0.8s-0.3-0.7-0.3-1.1c0-0.4,0.1-0.8,0.3-1.1c0.2-0.3,0.4-0.6,0.7-0.8c0.5-0.4,1.1-0.6,1.7-0.6
				c0.2,0,0.5,0,0.7,0.1s0.4,0.1,0.5,0.2l0.2,0.1c0.1,0.1,0.2,0.1,0.3,0.2c0.2,0.1,0.3,0.3,0.3,0.4c0,0.2-0.1,0.4-0.2,0.6
				c-0.2,0.4-0.5,0.5-0.7,0.5c-0.1,0-0.3-0.1-0.5-0.2c-0.1-0.1-0.3-0.2-0.5-0.2s-0.4,0.1-0.6,0.2C84.1,36.2,84,36.4,84,36.7z"/>
			<path fill="#6E6F71" d="M90.3,35.8h-0.6v1.3c0,0.2,0,0.3,0.1,0.4c0.1,0.1,0.2,0.1,0.3,0.1c0.2,0,0.3,0,0.4,0s0.2,0,0.3,0.1
				c0.1,0.1,0.2,0.3,0.2,0.7s-0.1,0.7-0.3,0.7c-0.1,0-0.2,0.1-0.3,0.1c-0.1,0-0.2,0-0.3,0c-0.7,0-1.2-0.2-1.5-0.5s-0.5-0.8-0.5-1.5
				v-1.4c-0.1,0-0.3,0-0.4,0s-0.3-0.1-0.4-0.2c-0.1-0.1-0.1-0.3-0.1-0.6s0-0.5,0-0.6s0.1-0.2,0.1-0.3c0.1-0.1,0.2-0.1,0.4-0.1H88v-1
				c0-0.1,0-0.3,0-0.3c0-0.1,0-0.1,0.1-0.2c0.1-0.2,0.3-0.2,0.7-0.2c0.4,0,0.7,0.1,0.8,0.4c0,0.1,0,0.3,0,0.5v1c0.3,0,0.5,0,0.6,0
				s0.3,0,0.3,0c0.1,0,0.2,0,0.3,0.1c0.2,0.1,0.3,0.3,0.3,0.7s-0.1,0.7-0.3,0.7c-0.1,0-0.2,0.1-0.3,0.1
				C90.6,35.8,90.5,35.8,90.3,35.8z"/>
			<path fill="#6E6F71" d="M93.3,33.2c0,0.1-0.1,0.2-0.3,0.2c-0.1,0-0.3,0.1-0.5,0.1s-0.4,0-0.5-0.1c-0.1,0-0.2-0.1-0.3-0.2
				c0-0.1-0.1-0.2-0.1-0.3s0-0.2,0-0.3s0-0.3,0-0.3c0-0.1,0-0.2,0.1-0.2c0.1-0.2,0.3-0.3,0.8-0.3c0.4,0,0.7,0.1,0.7,0.3
				c0.1,0.1,0.1,0.2,0.1,0.3s0,0.2,0,0.3s0,0.3,0,0.3C93.4,33,93.4,33.1,93.3,33.2z M91.7,35c0-0.1,0-0.3,0-0.3c0-0.1,0-0.2,0.1-0.3
				c0.1-0.2,0.3-0.3,0.8-0.3c0.3,0,0.5,0.1,0.7,0.2c0.1,0.1,0.2,0.2,0.2,0.4c0,0.1,0,0.2,0,0.3v3.4c0,0.1,0,0.3,0,0.3
				c0,0.1,0,0.2-0.1,0.3c-0.1,0.2-0.3,0.3-0.7,0.3c-0.4,0-0.7-0.1-0.7-0.3c0-0.1-0.1-0.2-0.1-0.3s0-0.2,0-0.3V35H91.7z"/>
			<path fill="#6E6F71" d="M97,34.1c0.6,0,1.2,0.2,1.6,0.7s0.6,1.1,0.6,1.8v1.7c0,0.1,0,0.3,0,0.3c0,0.1,0,0.2-0.1,0.2
				c-0.1,0.2-0.3,0.3-0.8,0.3s-0.7-0.1-0.8-0.4c0-0.1-0.1-0.3-0.1-0.5v-1.7c0-0.3-0.1-0.5-0.2-0.6c-0.2-0.1-0.4-0.2-0.6-0.2
				c-0.3,0-0.5,0.1-0.6,0.2c-0.2,0.2-0.2,0.4-0.2,0.6v1.7c0,0.1,0,0.3,0,0.3c0,0.1,0,0.2-0.1,0.2C95.6,38.9,95.4,39,95,39
				c-0.4,0-0.7-0.1-0.7-0.3c0-0.1-0.1-0.2-0.1-0.3s0-0.2,0-0.3v-3.4c0-0.1,0-0.3,0-0.3c0-0.1,0-0.2,0.1-0.2C94.4,34,94.6,34,95,34
				c0.4,0,0.6,0.1,0.7,0.2c0.1,0.1,0.1,0.2,0.1,0.4c0,0,0.1-0.1,0.2-0.2c0.1-0.1,0.2-0.2,0.3-0.2C96.5,34.2,96.8,34.1,97,34.1z"/>
			<path fill="#6E6F71" d="M103.3,38.6c-0.2,0.3-0.6,0.5-1.2,0.5s-1-0.2-1.5-0.7s-0.7-1.1-0.7-1.7c0-0.7,0.2-1.2,0.7-1.7
				s1-0.7,1.6-0.7c0.2,0,0.4,0,0.6,0.1s0.3,0.2,0.4,0.2c0.1,0.1,0.1,0.1,0.2,0.2c0-0.2,0.1-0.3,0.2-0.4c0.1-0.1,0.3-0.1,0.5-0.1
				c0.3,0,0.4,0,0.6,0.1c0.1,0,0.2,0.1,0.2,0.2c0,0.1,0.1,0.2,0.1,0.2c0,0.1,0,0.2,0,0.3v4c0,0.7-0.3,1.3-0.8,1.8s-1.1,0.7-1.8,0.7
				c-0.5,0-1-0.1-1.4-0.4c-0.4-0.2-0.7-0.5-0.7-0.7c0-0.3,0.1-0.5,0.3-0.7c0.1-0.1,0.2-0.2,0.3-0.3c0.1-0.1,0.1-0.1,0.2-0.1
				s0.2,0,0.3,0.1c0.3,0.2,0.6,0.4,1,0.4c0.2,0,0.4-0.1,0.6-0.3s0.2-0.4,0.2-0.7v-0.3H103.3z M101.6,36.6c0,0.2,0.1,0.4,0.2,0.6
				c0.2,0.2,0.4,0.3,0.6,0.3s0.4-0.1,0.6-0.3s0.2-0.4,0.2-0.6c0-0.2-0.1-0.4-0.2-0.6c-0.1-0.2-0.3-0.3-0.6-0.3s-0.5,0.1-0.6,0.3
				S101.6,36.4,101.6,36.6z"/>
			<path fill="#6E6F71" d="M111.3,36.7l1.3,1.1c0.2,0.1,0.3,0.2,0.3,0.3s0.1,0.1,0.1,0.2c0,0.2-0.1,0.4-0.3,0.6
				c-0.2,0.3-0.4,0.4-0.6,0.4c-0.1,0-0.3-0.1-0.6-0.3l-0.1-0.1c-0.1-0.1-0.4-0.3-0.7-0.6s-0.5-0.5-0.7-0.7v0.7c0,0.1,0,0.3,0,0.3
				c0,0.1,0,0.2-0.1,0.3c-0.1,0.2-0.3,0.3-0.7,0.3s-0.7-0.1-0.7-0.3c0-0.1-0.1-0.2-0.1-0.3s0-0.2,0-0.3v-5.8c0-0.1,0-0.3,0-0.3
				c0-0.1,0-0.2,0.1-0.3c0.1-0.2,0.3-0.3,0.8-0.3c0.3,0,0.5,0.1,0.7,0.2c0.1,0.1,0.2,0.2,0.2,0.4c0,0.1,0,0.1,0,0.3v3.1
				c0.1-0.1,0.3-0.3,0.5-0.5s0.4-0.4,0.5-0.5l0.1-0.1c0.2-0.2,0.4-0.3,0.6-0.3c0.2,0,0.3,0.1,0.6,0.4c0.2,0.3,0.3,0.5,0.3,0.6
				s-0.1,0.3-0.4,0.5L111.3,36.7z"/>
			<path fill="#6E6F71" d="M115.1,33.2c0,0.1-0.1,0.2-0.3,0.2c-0.1,0-0.3,0.1-0.5,0.1s-0.4,0-0.5-0.1c-0.1,0-0.2-0.1-0.3-0.2
				c0-0.1-0.1-0.2-0.1-0.3s0-0.2,0-0.3s0-0.3,0-0.3s0-0.2,0.1-0.2c0.1-0.2,0.3-0.3,0.8-0.3c0.4,0,0.7,0.1,0.7,0.3
				c0.1,0.1,0.1,0.2,0.1,0.3s0,0.2,0,0.3s0,0.3,0,0.3S115.1,33.1,115.1,33.2z M113.5,35c0-0.1,0-0.3,0-0.3c0-0.1,0-0.2,0.1-0.3
				c0.1-0.2,0.3-0.3,0.8-0.3c0.3,0,0.5,0.1,0.7,0.2c0.1,0.1,0.2,0.2,0.2,0.4c0,0.1,0,0.2,0,0.3v3.4c0,0.1,0,0.3,0,0.3
				c0,0.1,0,0.2-0.1,0.3c-0.1,0.2-0.3,0.3-0.7,0.3s-0.7-0.1-0.7-0.3c0-0.1-0.1-0.2-0.1-0.3s0-0.2,0-0.3V35H113.5z"/>
			<path fill="#6E6F71" d="M119.4,32c0-0.1,0.1-0.2,0.3-0.2c0.1,0,0.3-0.1,0.5-0.1s0.4,0,0.5,0.1c0.1,0,0.2,0.1,0.3,0.2
				c0,0.1,0.1,0.2,0.1,0.3s0,0.2,0,0.3v5.8c0,0.1,0,0.3,0,0.3c0,0.1,0,0.2-0.1,0.2c-0.1,0.2-0.4,0.3-0.8,0.3c-0.5,0-0.7-0.2-0.8-0.5
				c-0.3,0.3-0.7,0.5-1.1,0.5c-0.6,0-1.1-0.3-1.6-0.8s-0.7-1.1-0.7-1.8s0.2-1.3,0.7-1.8s1-0.8,1.6-0.8c0.5,0,0.9,0.2,1.1,0.5v-2
				c0-0.1,0-0.3,0-0.3C119.3,32.1,119.3,32.1,119.4,32z M117.8,37.3c0.2,0.2,0.4,0.3,0.6,0.3c0.2,0,0.4-0.1,0.6-0.3
				c0.2-0.2,0.2-0.4,0.2-0.6c0-0.2-0.1-0.4-0.2-0.6c-0.2-0.2-0.4-0.3-0.6-0.3c-0.3,0-0.5,0.1-0.6,0.3c-0.2,0.2-0.2,0.4-0.2,0.6
				C117.5,36.9,117.6,37.1,117.8,37.3z"/>
			<path fill="#6E6F71" d="M121.8,38.8c-0.1-0.1-0.2-0.2-0.2-0.4s0.1-0.4,0.4-0.8c0.1-0.1,0.2-0.2,0.3-0.2c0.2,0,0.4,0.1,0.6,0.2
				c0.3,0.2,0.5,0.2,0.7,0.2c0.4,0,0.6-0.1,0.6-0.2c0-0.1-0.2-0.2-0.7-0.3c-0.4-0.1-0.8-0.2-1.2-0.5c-0.2-0.1-0.3-0.3-0.5-0.5
				c-0.1-0.2-0.2-0.5-0.2-0.9c0-1,0.7-1.5,2.1-1.5c0.5,0,0.9,0.1,1.4,0.3c0.2,0.1,0.3,0.2,0.3,0.4s-0.1,0.3-0.2,0.6
				c-0.1,0.2-0.3,0.3-0.4,0.3c-0.1,0-0.2,0-0.4-0.1s-0.4-0.1-0.7-0.1c-0.4,0-0.6,0.1-0.6,0.2c0,0.2,0.2,0.3,0.7,0.4
				c0.4,0,0.8,0.2,1.2,0.4c0.2,0.1,0.3,0.2,0.5,0.5c0.1,0.2,0.2,0.5,0.2,0.8s-0.1,0.6-0.2,0.9c-0.1,0.2-0.3,0.4-0.5,0.5
				c-0.4,0.2-0.9,0.3-1.6,0.3C123,39.3,122.4,39.1,121.8,38.8z"/>
			<path fill="#6E6F71" d="M134.9,39.2c-0.6,0-1.1-0.1-1.7-0.4c-0.6,0.3-1.2,0.5-1.9,0.5c-1.7,0-2.5-0.7-2.5-2.1
				c0-0.7,0.4-1.4,1.1-2c-0.3-0.6-0.4-1.1-0.4-1.6c0-0.6,0.2-1.1,0.6-1.4c0.4-0.3,0.9-0.5,1.6-0.5c0.7,0,1.2,0.2,1.5,0.5
				c0.3,0.3,0.5,0.7,0.5,1.3c0,0.5-0.2,0.9-0.6,1.2c-0.3,0.3-0.7,0.6-1.1,0.9c0.4,0.5,0.8,0.9,1.2,1.3c0.2-0.3,0.3-0.6,0.4-0.9
				c0.1-0.3,0.4-0.4,0.9-0.4c0.2,0,0.4,0,0.5,0.1s0.2,0.1,0.2,0.2c0,0.1,0,0.1,0,0.2c0,0.5-0.2,1-0.6,1.5c0.1,0,0.2,0,0.3,0
				c0.5,0,0.8,0.3,0.8,0.8c0,0.4-0.1,0.6-0.2,0.7C135.3,39.2,135.1,39.2,134.9,39.2z M131.4,37.9c0.2,0,0.3,0,0.4,0
				c-0.4-0.3-0.7-0.7-1.1-1.2c-0.1,0.2-0.2,0.4-0.2,0.6C130.5,37.6,130.8,37.9,131.4,37.9z M131.1,33.5c0,0.2,0.1,0.5,0.2,0.8
				c0.3-0.2,0.5-0.4,0.7-0.5s0.2-0.3,0.2-0.4c0-0.3-0.2-0.4-0.5-0.4C131.3,33,131.1,33.2,131.1,33.5z"/>
			<path fill="#6E6F71" d="M141.7,35.8h-0.6v1.3c0,0.2,0,0.3,0.1,0.4c0.1,0.1,0.2,0.1,0.3,0.1c0.2,0,0.3,0,0.4,0
				c0.1,0,0.2,0,0.3,0.1s0.2,0.3,0.2,0.7s-0.1,0.7-0.3,0.7c-0.1,0-0.2,0.1-0.3,0.1s-0.2,0-0.3,0c-0.7,0-1.2-0.2-1.5-0.5
				s-0.5-0.8-0.5-1.5v-1.4c-0.1,0-0.3,0-0.4,0s-0.3-0.1-0.4-0.2c-0.1-0.1-0.1-0.3-0.1-0.6s0-0.5,0-0.6s0.1-0.2,0.1-0.3
				c0.1-0.1,0.2-0.1,0.4-0.1h0.3v-1c0-0.1,0-0.3,0-0.3c0-0.1,0-0.1,0.1-0.2c0.1-0.2,0.3-0.2,0.7-0.2s0.7,0.1,0.8,0.4
				c0,0.1,0,0.3,0,0.5v1c0.3,0,0.5,0,0.6,0s0.3,0,0.3,0c0.1,0,0.2,0,0.3,0.1c0.2,0.1,0.3,0.3,0.3,0.7s-0.1,0.7-0.3,0.7
				c-0.1,0-0.2,0.1-0.3,0.1C141.9,35.8,141.8,35.8,141.7,35.8z"/>
			<path fill="#6E6F71" d="M147.8,36.1c0,0.4-0.1,0.7-0.3,0.9s-0.4,0.3-0.7,0.3h-2.3c0,0.2,0.1,0.3,0.3,0.5c0.2,0.1,0.4,0.2,0.6,0.2
				c0.4,0,0.7,0,0.9-0.1h0.1c0.2-0.1,0.3-0.1,0.4-0.1c0.2,0,0.4,0.1,0.5,0.4c0.1,0.2,0.1,0.3,0.1,0.4c0,0.6-0.7,0.9-2.1,0.9
				c-0.5,0-0.9-0.1-1.3-0.2c-0.4-0.2-0.7-0.4-0.9-0.7c-0.4-0.5-0.6-1.1-0.6-1.8c0-0.8,0.3-1.5,0.8-2s1.2-0.7,2-0.7
				c0.9,0,1.6,0.3,2,1C147.7,35.3,147.8,35.7,147.8,36.1z M145.8,36.3c0.2,0,0.4-0.1,0.4-0.3c0-0.1-0.1-0.3-0.2-0.4
				c-0.1-0.1-0.3-0.1-0.5-0.1s-0.4,0.1-0.6,0.3c-0.2,0.2-0.3,0.4-0.3,0.5H145.8z"/>
			<path fill="#6E6F71" d="M153.4,36.1c0,0.4-0.1,0.7-0.3,0.9s-0.4,0.3-0.7,0.3h-2.3c0,0.2,0.1,0.3,0.3,0.5c0.2,0.1,0.4,0.2,0.6,0.2
				c0.4,0,0.7,0,0.9-0.1h0.1c0.2-0.1,0.3-0.1,0.4-0.1c0.2,0,0.4,0.1,0.5,0.4c0.1,0.2,0.1,0.3,0.1,0.4c0,0.6-0.7,0.9-2.1,0.9
				c-0.5,0-0.9-0.1-1.3-0.2c-0.4-0.2-0.7-0.4-0.9-0.7c-0.4-0.5-0.6-1.1-0.6-1.8c0-0.8,0.3-1.5,0.8-2s1.2-0.7,2-0.7
				c0.9,0,1.6,0.3,2,1C153.3,35.3,153.4,35.7,153.4,36.1z M151.3,36.3c0.2,0,0.4-0.1,0.4-0.3c0-0.1-0.1-0.3-0.2-0.4
				c-0.1-0.1-0.3-0.1-0.5-0.1s-0.4,0.1-0.6,0.3c-0.2,0.2-0.3,0.4-0.3,0.5H151.3z"/>
			<path fill="#6E6F71" d="M156.9,34.1c0.6,0,1.2,0.2,1.6,0.7c0.4,0.5,0.6,1.1,0.6,1.8v1.7c0,0.1,0,0.3,0,0.3c0,0.1,0,0.2-0.1,0.2
				c-0.1,0.2-0.3,0.3-0.8,0.3s-0.7-0.1-0.8-0.4c0-0.1-0.1-0.3-0.1-0.5v-1.7c0-0.3-0.1-0.5-0.2-0.6c-0.2-0.1-0.4-0.2-0.6-0.2
				c-0.3,0-0.5,0.1-0.6,0.2c-0.2,0.2-0.2,0.4-0.2,0.6v1.7c0,0.1,0,0.3,0,0.3c0,0.1,0,0.2-0.1,0.2c-0.1,0.2-0.3,0.3-0.7,0.3
				s-0.7-0.1-0.7-0.3c0-0.1-0.1-0.2-0.1-0.3s0-0.2,0-0.3v-3.4c0-0.1,0-0.3,0-0.3c0-0.1,0-0.2,0.1-0.2c0.1-0.2,0.3-0.2,0.7-0.2
				s0.6,0.1,0.7,0.2c0.1,0.1,0.1,0.2,0.1,0.4c0,0,0.1-0.1,0.2-0.2c0.1-0.1,0.2-0.2,0.3-0.2C156.4,34.2,156.6,34.1,156.9,34.1z"/>
			<path fill="#6E6F71" d="M159.9,38.8c-0.1-0.1-0.2-0.2-0.2-0.4s0.1-0.4,0.4-0.8c0.1-0.1,0.2-0.2,0.3-0.2c0.2,0,0.4,0.1,0.6,0.2
				c0.3,0.2,0.5,0.2,0.7,0.2c0.4,0,0.6-0.1,0.6-0.2c0-0.1-0.2-0.2-0.7-0.3c-0.4-0.1-0.8-0.2-1.2-0.5c-0.2-0.1-0.3-0.3-0.5-0.5
				c-0.1-0.2-0.2-0.5-0.2-0.9c0-1,0.7-1.5,2.1-1.5c0.5,0,0.9,0.1,1.4,0.3c0.2,0.1,0.3,0.2,0.3,0.4s-0.1,0.3-0.2,0.6
				c-0.1,0.2-0.3,0.3-0.4,0.3c-0.1,0-0.2,0-0.4-0.1s-0.4-0.1-0.7-0.1c-0.4,0-0.6,0.1-0.6,0.2c0,0.2,0.2,0.3,0.7,0.4
				c0.4,0,0.8,0.2,1.2,0.4c0.2,0.1,0.3,0.2,0.5,0.5c0.1,0.2,0.2,0.5,0.2,0.8s-0.1,0.6-0.2,0.9c-0.1,0.2-0.3,0.4-0.5,0.5
				c-0.4,0.2-0.9,0.3-1.6,0.3C161.1,39.3,160.5,39.1,159.9,38.8z"/>
			<path fill="#6E6F71" d="M55.6,47.5H55v1.3c0,0.2,0,0.3,0.1,0.4s0.2,0.1,0.3,0.1c0.2,0,0.3,0,0.4,0s0.2,0,0.3,0.1
				c0.1,0.1,0.2,0.3,0.2,0.7c0,0.4-0.1,0.7-0.3,0.7c-0.1,0-0.2,0.1-0.3,0.1c-0.1,0-0.2,0-0.3,0c-0.7,0-1.2-0.2-1.5-0.5
				s-0.5-0.8-0.5-1.5v-1.4c-0.1,0-0.3,0-0.4,0s-0.3-0.1-0.4-0.2c-0.1-0.1-0.1-0.3-0.1-0.6s0-0.5,0-0.6s0.1-0.2,0.1-0.3
				c0.1,0,0.2,0,0.4,0h0.3v-1c0-0.1,0-0.3,0-0.3c0-0.1,0-0.1,0.1-0.2c0.1-0.2,0.3-0.2,0.7-0.2c0.4,0,0.7,0.1,0.8,0.4
				c0,0.1,0,0.3,0,0.5v1c0.3,0,0.5,0,0.6,0s0.3,0,0.3,0c0.1,0,0.2,0,0.3,0.1c0.2,0.1,0.3,0.3,0.3,0.7s-0.1,0.7-0.3,0.7
				c-0.1,0-0.2,0.1-0.3,0.1C55.9,47.5,55.8,47.5,55.6,47.5z"/>
			<path fill="#6E6F71" d="M57.7,46.4c0.5-0.5,1.2-0.8,1.9-0.8c0.7,0,1.3,0.3,1.9,0.8c0.5,0.5,0.8,1.1,0.8,1.9c0,0.5-0.1,1-0.4,1.4
				s-0.6,0.7-1,0.9c-0.4,0.2-0.8,0.3-1.2,0.3s-0.8-0.1-1.2-0.3c-0.4-0.2-0.7-0.5-1-0.9s-0.4-0.9-0.4-1.4
				C56.9,47.6,57.1,46.9,57.7,46.4z M58.9,49c0.2,0.2,0.4,0.2,0.6,0.2s0.4-0.1,0.6-0.2c0.2-0.2,0.3-0.4,0.3-0.7
				c0-0.3-0.1-0.6-0.3-0.7c-0.2-0.2-0.4-0.2-0.7-0.2c-0.2,0-0.5,0.1-0.7,0.2c-0.2,0.2-0.3,0.4-0.3,0.7C58.6,48.6,58.7,48.9,58.9,49z
				"/>
			<path fill="#6E6F71" d="M68.3,45.8c0.4,0,0.7,0.1,0.8,0.4c0,0.1,0.1,0.3,0.1,0.5s0,0.4-0.1,0.5c0,0.1-0.1,0.2-0.2,0.3
				s-0.3,0.1-0.6,0.1h-0.6v2.6c0,0.2,0,0.4-0.1,0.5s-0.2,0.2-0.3,0.2c-0.1,0-0.3,0.1-0.5,0.1s-0.4,0-0.5-0.1c-0.1,0-0.2-0.1-0.3-0.2
				c-0.1-0.1-0.1-0.2-0.1-0.3c0-0.1,0-0.2,0-0.3v-2.6h-0.3c-0.2,0-0.3-0.1-0.4-0.1C65.1,47.3,65,47,65,46.7c0-0.5,0.2-0.8,0.6-0.8
				h0.3v-0.5c0-0.5,0.2-1,0.5-1.4c0.4-0.4,0.9-0.6,1.5-0.6c0.1,0,0.3,0,0.3,0c0.1,0,0.2,0,0.3,0.1c0.2,0.1,0.3,0.3,0.3,0.7
				c0,0.3-0.1,0.5-0.2,0.7c-0.1,0.1-0.2,0.2-0.4,0.2c-0.1,0-0.1,0-0.3,0c-0.2,0-0.4,0.1-0.4,0.2v0.5H68.3z"/>
			<path fill="#6E6F71" d="M70.1,46.4c0.5-0.5,1.2-0.8,1.9-0.8c0.7,0,1.3,0.3,1.9,0.8c0.5,0.5,0.8,1.1,0.8,1.9c0,0.5-0.1,1-0.4,1.4
				s-0.6,0.7-1,0.9c-0.4,0.2-0.8,0.3-1.2,0.3c-0.4,0-0.8-0.1-1.2-0.3c-0.4-0.2-0.7-0.5-1-0.9s-0.4-0.9-0.4-1.4
				C69.3,47.6,69.6,46.9,70.1,46.4z M71.4,49c0.2,0.2,0.4,0.2,0.6,0.2s0.4-0.1,0.6-0.2c0.2-0.2,0.3-0.4,0.3-0.7
				c0-0.3-0.1-0.6-0.3-0.7c-0.2-0.2-0.4-0.2-0.7-0.2c-0.2,0-0.5,0.1-0.7,0.2c-0.2,0.2-0.3,0.4-0.3,0.7C71,48.6,71.2,48.9,71.4,49z"
				/>
			<path fill="#6E6F71" d="M76,46.4c0.5-0.5,1.2-0.8,1.9-0.8c0.7,0,1.3,0.3,1.9,0.8c0.5,0.5,0.8,1.1,0.8,1.9c0,0.5-0.1,1-0.4,1.4
				s-0.6,0.7-1,0.9c-0.4,0.2-0.8,0.3-1.2,0.3c-0.4,0-0.8-0.1-1.2-0.3c-0.4-0.2-0.7-0.5-1-0.9s-0.4-0.9-0.4-1.4
				C75.2,47.6,75.4,46.9,76,46.4z M77.2,49c0.2,0.2,0.4,0.2,0.6,0.2s0.4-0.1,0.6-0.2s0.3-0.4,0.3-0.7c0-0.3-0.1-0.6-0.3-0.7
				c-0.2-0.2-0.4-0.2-0.7-0.2c-0.2,0-0.5,0.1-0.7,0.2c-0.2,0.2-0.3,0.4-0.3,0.7C76.9,48.6,77,48.9,77.2,49z"/>
			<path fill="#6E6F71" d="M84.6,43.6c0-0.1,0.1-0.2,0.3-0.2c0.1,0,0.3-0.1,0.5-0.1s0.4,0,0.5,0.1c0.1,0,0.2,0.1,0.3,0.2
				c0,0.1,0.1,0.2,0.1,0.3s0,0.2,0,0.3V50c0,0.1,0,0.3,0,0.3c0,0.1,0,0.2-0.1,0.2c-0.1,0.2-0.4,0.3-0.8,0.3c-0.5,0-0.7-0.2-0.8-0.5
				c-0.3,0.3-0.7,0.5-1.1,0.5c-0.6,0-1.1-0.3-1.6-0.8s-0.7-1.1-0.7-1.8c0-0.7,0.2-1.3,0.7-1.8s1-0.8,1.6-0.8c0.5,0,0.9,0.2,1.1,0.5
				v-2c0-0.1,0-0.3,0-0.3C84.5,43.8,84.5,43.7,84.6,43.6z M83,48.9c0.2,0.2,0.4,0.3,0.6,0.3s0.4-0.1,0.6-0.3
				c0.2-0.2,0.2-0.4,0.2-0.6s-0.1-0.4-0.2-0.6c-0.2-0.2-0.4-0.3-0.6-0.3c-0.3,0-0.5,0.1-0.6,0.3c-0.2,0.2-0.2,0.4-0.2,0.6
				C82.7,48.6,82.8,48.7,83,48.9z"/>
			<path fill="#6E6F71" d="M92.9,45.8c0.1,0,0.2,0.1,0.3,0.2c0.1,0.1,0.1,0.2,0.1,0.5c0,0.2-0.1,0.4-0.2,0.7
				c-0.1,0.2-0.3,0.4-0.5,0.4c-0.1,0-0.2,0-0.3-0.1c-0.1-0.1-0.2-0.1-0.4-0.1c-0.2,0-0.3,0.1-0.5,0.2c-0.2,0.1-0.2,0.3-0.2,0.4v2
				c0,0.1,0,0.3,0,0.3c0,0.1,0,0.2-0.1,0.3c-0.1,0.2-0.3,0.3-0.8,0.3c-0.3,0-0.5-0.1-0.7-0.2c-0.1-0.1-0.2-0.2-0.2-0.4
				c0-0.1,0-0.2,0-0.3v-3.4c0-0.1,0-0.3,0-0.3c0-0.1,0-0.2,0.1-0.2c0.1-0.2,0.3-0.3,0.8-0.3c0.4,0,0.6,0.1,0.7,0.2
				c0.1,0.1,0.1,0.2,0.1,0.3c0,0,0.1-0.1,0.1-0.2c0.1-0.1,0.2-0.2,0.4-0.3c0.2-0.1,0.4-0.2,0.5-0.2c0.2,0,0.3,0,0.4,0
				C92.7,45.8,92.8,45.8,92.9,45.8z"/>
			<path fill="#6E6F71" d="M98.5,47.7c0,0.4-0.1,0.7-0.3,0.9c-0.2,0.2-0.4,0.3-0.7,0.3h-2.3c0,0.2,0.1,0.3,0.3,0.5
				c0.2,0.1,0.4,0.2,0.6,0.2c0.4,0,0.7,0,0.9-0.1h0.1c0.2-0.1,0.3-0.1,0.4-0.1c0.2,0,0.4,0.1,0.5,0.4c0.1,0.2,0.1,0.3,0.1,0.4
				c0,0.6-0.7,0.9-2.1,0.9c-0.5,0-0.9-0.1-1.3-0.2c-0.4-0.2-0.7-0.4-0.9-0.7c-0.4-0.5-0.6-1.1-0.6-1.8c0-0.8,0.3-1.5,0.8-2
				s1.2-0.7,2-0.7c0.9,0,1.6,0.3,2,1C98.4,47,98.5,47.3,98.5,47.7z M96.5,48c0.2,0,0.4-0.1,0.4-0.3c0-0.1-0.1-0.3-0.2-0.4
				c-0.1-0.1-0.3-0.1-0.5-0.1s-0.4,0.1-0.6,0.3s-0.3,0.4-0.3,0.5H96.5z"/>
			<path fill="#6E6F71" d="M99.2,50.4C99.1,50.3,99,50.2,99,50c0-0.2,0.1-0.4,0.4-0.8c0.1-0.1,0.2-0.2,0.3-0.2
				c0.2,0,0.4,0.1,0.6,0.2c0.3,0.2,0.5,0.2,0.7,0.2c0.4,0,0.6-0.1,0.6-0.2s-0.2-0.2-0.7-0.3c-0.4-0.1-0.8-0.2-1.2-0.5
				c-0.2-0.1-0.3-0.3-0.5-0.5C99.1,47.7,99,47.4,99,47c0-1,0.7-1.5,2.1-1.5c0.5,0,0.9,0.1,1.4,0.3c0.2,0.1,0.3,0.2,0.3,0.4
				s-0.1,0.3-0.2,0.6c-0.1,0.2-0.3,0.3-0.4,0.3s-0.2,0-0.4-0.1c-0.2-0.1-0.4-0.1-0.7-0.1c-0.4,0-0.6,0.1-0.6,0.2
				c0,0.2,0.2,0.3,0.7,0.4c0.4,0,0.8,0.2,1.2,0.4c0.2,0.1,0.3,0.2,0.5,0.5c0.1,0.2,0.2,0.5,0.2,0.8s-0.1,0.6-0.2,0.9
				c-0.1,0.2-0.3,0.4-0.5,0.5c-0.4,0.2-0.9,0.3-1.6,0.3S99.8,50.8,99.2,50.4z"/>
			<path fill="#6E6F71" d="M104.6,46.4c0.5-0.5,1.2-0.8,1.9-0.8s1.3,0.3,1.9,0.8c0.5,0.5,0.8,1.1,0.8,1.9c0,0.5-0.1,1-0.4,1.4
				c-0.3,0.4-0.6,0.7-1,0.9c-0.4,0.2-0.8,0.3-1.2,0.3s-0.8-0.1-1.2-0.3c-0.4-0.2-0.7-0.5-1-0.9s-0.4-0.9-0.4-1.4
				C103.7,47.6,104,46.9,104.6,46.4z M105.8,49c0.2,0.2,0.4,0.2,0.6,0.2c0.2,0,0.4-0.1,0.6-0.2c0.2-0.2,0.3-0.4,0.3-0.7
				c0-0.3-0.1-0.6-0.3-0.7c-0.2-0.2-0.4-0.2-0.7-0.2s-0.5,0.1-0.7,0.2c-0.2,0.2-0.3,0.4-0.3,0.7C105.5,48.6,105.6,48.9,105.8,49z"/>
			<path fill="#6E6F71" d="M112,50.9c-0.7,0-1.2-0.2-1.6-0.7c-0.4-0.5-0.6-1.1-0.6-1.8v-1.7c0-0.2,0-0.3,0-0.3c0-0.1,0-0.2,0.1-0.3
				c0.1-0.2,0.3-0.3,0.8-0.3s0.7,0.1,0.8,0.4c0,0.1,0.1,0.3,0.1,0.5v1.7c0,0.3,0.1,0.5,0.2,0.6c0.2,0.1,0.4,0.2,0.6,0.2
				c0.3,0,0.5-0.1,0.6-0.2c0.2-0.2,0.2-0.4,0.2-0.6v-1.7c0-0.1,0-0.3,0-0.3c0-0.1,0-0.2,0.1-0.3c0.1-0.2,0.3-0.3,0.7-0.3
				s0.7,0.1,0.7,0.3c0,0.1,0.1,0.2,0.1,0.3s0,0.2,0,0.3v3.4c0,0.1,0,0.3,0,0.3c0,0.1,0,0.2-0.1,0.2c-0.1,0.2-0.3,0.3-0.7,0.3
				s-0.6-0.1-0.7-0.2c-0.1-0.1-0.1-0.2-0.1-0.4c0,0-0.1,0.1-0.2,0.2c-0.1,0.1-0.2,0.2-0.3,0.2C112.5,50.8,112.3,50.9,112,50.9z"/>
			<path fill="#6E6F71" d="M119.1,45.8c0.1,0,0.2,0.1,0.3,0.2c0.1,0.1,0.1,0.2,0.1,0.5c0,0.2-0.1,0.4-0.2,0.7
				c-0.1,0.2-0.3,0.4-0.5,0.4c-0.1,0-0.2,0-0.3-0.1s-0.2-0.1-0.4-0.1s-0.3,0.1-0.5,0.2c-0.2,0.1-0.2,0.3-0.2,0.4v2
				c0,0.1,0,0.3,0,0.3c0,0.1,0,0.2-0.1,0.3c-0.1,0.2-0.3,0.3-0.8,0.3c-0.3,0-0.5-0.1-0.7-0.2c-0.1-0.1-0.2-0.2-0.2-0.4
				c0-0.1,0-0.2,0-0.3v-3.4c0-0.1,0-0.3,0-0.3c0-0.1,0-0.2,0.1-0.2c0.1-0.2,0.3-0.3,0.8-0.3c0.4,0,0.6,0.1,0.7,0.2
				c0.1,0.1,0.1,0.2,0.1,0.3c0,0,0.1-0.1,0.1-0.2c0.1-0.1,0.2-0.2,0.4-0.3s0.4-0.2,0.5-0.2c0.2,0,0.3,0,0.4,0
				C118.9,45.8,119,45.8,119.1,45.8z"/>
			<path fill="#6E6F71" d="M121.4,48.3c0,0.3,0.1,0.5,0.3,0.6c0.2,0.2,0.4,0.2,0.6,0.2c0.2,0,0.4-0.1,0.6-0.2
				c0.2-0.1,0.3-0.2,0.4-0.2c0.2,0,0.4,0.2,0.7,0.5c0.1,0.2,0.2,0.4,0.2,0.5c0,0.2-0.2,0.5-0.5,0.7c-0.4,0.3-0.8,0.4-1.4,0.4
				c-0.6,0-1.2-0.2-1.7-0.7c-0.3-0.2-0.5-0.5-0.7-0.8s-0.3-0.7-0.3-1.1s0.1-0.8,0.3-1.1s0.4-0.6,0.7-0.8c0.5-0.4,1.1-0.6,1.7-0.6
				c0.2,0,0.5,0,0.7,0.1s0.4,0.1,0.5,0.2l0.2,0.1c0.1,0.1,0.2,0.1,0.3,0.2c0.2,0.1,0.3,0.3,0.3,0.4c0,0.2-0.1,0.4-0.2,0.6
				c-0.2,0.4-0.5,0.5-0.7,0.5c-0.1,0-0.3-0.1-0.5-0.2c-0.1-0.1-0.3-0.2-0.5-0.2s-0.4,0.1-0.6,0.2C121.5,47.8,121.4,48.1,121.4,48.3z
				"/>
			<path fill="#6E6F71" d="M129.6,47.7c0,0.4-0.1,0.7-0.3,0.9c-0.2,0.2-0.4,0.3-0.7,0.3h-2.3c0,0.2,0.1,0.3,0.3,0.5
				c0.2,0.1,0.4,0.2,0.6,0.2c0.4,0,0.7,0,0.9-0.1h0.1c0.2-0.1,0.3-0.1,0.4-0.1c0.2,0,0.4,0.1,0.5,0.4c0.1,0.2,0.1,0.3,0.1,0.4
				c0,0.6-0.7,0.9-2.1,0.9c-0.5,0-0.9-0.1-1.3-0.2c-0.4-0.2-0.7-0.4-0.9-0.7c-0.4-0.5-0.6-1.1-0.6-1.8c0-0.8,0.3-1.5,0.8-2
				s1.2-0.7,2-0.7c0.9,0,1.6,0.3,2,1C129.5,47,129.6,47.3,129.6,47.7z M127.5,48c0.2,0,0.4-0.1,0.4-0.3c0-0.1-0.1-0.3-0.2-0.4
				c-0.1-0.1-0.3-0.1-0.5-0.1s-0.4,0.1-0.6,0.3c-0.2,0.2-0.3,0.4-0.3,0.5H127.5z"/>
			<path fill="#6E6F71" d="M130.3,50.4c-0.1-0.1-0.2-0.2-0.2-0.4c0-0.2,0.1-0.4,0.4-0.8c0.1-0.1,0.2-0.2,0.3-0.2
				c0.2,0,0.4,0.1,0.6,0.2c0.3,0.2,0.5,0.2,0.7,0.2c0.4,0,0.6-0.1,0.6-0.2s-0.2-0.2-0.7-0.3c-0.4-0.1-0.8-0.2-1.2-0.5
				c-0.2-0.1-0.3-0.3-0.5-0.5c-0.1-0.2-0.2-0.5-0.2-0.9c0-1,0.7-1.5,2.1-1.5c0.5,0,0.9,0.1,1.4,0.3c0.2,0.1,0.3,0.2,0.3,0.4
				s-0.1,0.3-0.2,0.6c-0.1,0.2-0.3,0.3-0.4,0.3c-0.1,0-0.2,0-0.4-0.1s-0.4-0.1-0.7-0.1c-0.4,0-0.6,0.1-0.6,0.2
				c0,0.2,0.2,0.3,0.7,0.4c0.4,0,0.8,0.2,1.2,0.4c0.2,0.1,0.3,0.2,0.5,0.5c0.1,0.2,0.2,0.5,0.2,0.8s-0.1,0.6-0.2,0.9
				c-0.1,0.2-0.3,0.4-0.5,0.5c-0.4,0.2-0.9,0.3-1.6,0.3C131.4,51,130.8,50.8,130.3,50.4z"/>
		</g>
	</g>
	<g>
		<path fill="#EF3F25" d="M21.9,0.8c-11.6,0-21.1,9.5-21.1,21.1c0,4.9,1.7,9.5,4.5,13.1l16.6,20.8L38.5,35c2.8-3.6,4.5-8.1,4.5-13.1
			C43,10.3,33.6,0.8,21.9,0.8z"/>
	</g>
	<path fill="#FFFFFF" d="M27.8,15.3c-1.5-0.2-2.7,0.1-3.7,0.4c-0.7,0.2-1.4,0.4-2.2,0.4s-1.5-0.2-2.2-0.4c-1-0.3-2.2-0.6-3.7-0.4
		c-2.5,0.4-5.5,1.8-5.5,6.6c0,4.5,1.5,10.6,5.7,13.1c1.1,0.7,2.4,0.5,3.7,0.3c0.6-0.1,1.3-0.2,2-0.2s1.3,0.1,2,0.2
		c0.6,0.1,1.3,0.2,1.9,0.2c0.6,0,1.3-0.1,1.8-0.5c4.2-2.5,5.7-8.6,5.7-13.1C33.3,17.1,30.3,15.7,27.8,15.3z"/>
	<g>
		<path fill="#FFFFFF" d="M28,8c0.1-0.4,0-0.8,0-1.2c-0.4,0-0.8-0.1-1.2,0c-2.7,0.3-5.2,2.8-5.5,5.5c-0.1,0.4,0,0.8,0,1.2
			c0.4,0,0.8,0.1,1.2,0C25.2,13.1,27.6,10.6,28,8z"/>
	</g>
</g>
</svg>
