<?xml version="1.0" encoding="UTF-8" standalone="no"?>
<!-- Generator: Adobe Illustrator 20.0.0, SVG Export Plug-In . SVG Version: 6.00 Build 0)  -->

<svg
   xmlns:dc="http://purl.org/dc/elements/1.1/"
   xmlns:cc="http://creativecommons.org/ns#"
   xmlns:rdf="http://www.w3.org/1999/02/22-rdf-syntax-ns#"
   xmlns:svg="http://www.w3.org/2000/svg"
   xmlns="http://www.w3.org/2000/svg"
   xmlns:sodipodi="http://sodipodi.sourceforge.net/DTD/sodipodi-0.dtd"
   xmlns:inkscape="http://www.inkscape.org/namespaces/inkscape"
   version="1.1"
   id="Layer_1"
   x="0px"
   y="0px"
   viewBox="0 0 46.043295 59.999998"
   xml:space="preserve"
   sodipodi:docname="pin-off.svg"
   width="46.043297"
   height="60"
   inkscape:version="0.92.1 r"><metadata
     id="metadata4056"><rdf:RDF><cc:Work
         rdf:about=""><dc:format>image/svg+xml</dc:format><dc:type
           rdf:resource="http://purl.org/dc/dcmitype/StillImage" /></cc:Work></rdf:RDF></metadata><defs
     id="defs4054" /><sodipodi:namedview
     pagecolor="#ffffff"
     bordercolor="#666666"
     borderopacity="1"
     objecttolerance="10"
     gridtolerance="10"
     guidetolerance="10"
     inkscape:pageopacity="0"
     inkscape:pageshadow="2"
     inkscape:window-width="1359"
     inkscape:window-height="480"
     id="namedview4052"
     showgrid="false"
     inkscape:zoom="0.54352831"
     inkscape:cx="166.60001"
     inkscape:cy="217.09999"
     inkscape:window-x="0"
     inkscape:window-y="23"
     inkscape:window-maximized="0"
     inkscape:current-layer="Layer_1" /><style
     type="text/css"
     id="style4023">
	.st0{fill:#ec3f30;}
	.st1{fill:#FFFFFF;stroke:#ec3f30;stroke-miterlimit:10;}
	.st2{fill:#FFFFFF;}
</style><g
     id="g4027"
     transform="scale(0.13818517)"><path
       class="st0"
       d="M 166.6,0 C 74.7,0 0,74.7 0,166.6 0,205.5 13.4,241.4 35.9,269.8 L 166.6,434.2 297.3,269.8 C 319.8,241.4 333.2,205.6 333.2,166.6 333.2,74.7 258.5,0 166.6,0 Z"
       id="path4025"
       inkscape:connector-curvature="0"
       style="fill:#ec3f30" /></g><g
     id="g4049"
     transform="scale(0.13818517)"><g
       id="g4033"><g
         id="g4031"><path
           class="st1"
           d="m 169.9,122.9 c 0,1.8 -1.5,3.3 -3.3,3.3 -1.8,0 -3.3,-1.5 -3.3,-3.3"
           id="path4029"
           inkscape:connector-curvature="0"
           style="fill:#ffffff;stroke:#ec3f30;stroke-miterlimit:10" /></g></g><g
       id="g4043"><g
         id="g4037"><path
           class="st2"
           d="m 212.6,113.1 c -11.6,-1.8 -20.7,0.9 -28.8,3.2 -5.8,1.7 -11.2,3.3 -17.2,3.3 -6,0 -11.4,-1.6 -17.2,-3.3 -8,-2.3 -17.2,-5 -28.8,-3.2 -19.4,3 -42.5,14.2 -42.5,51.1 0,34.9 11.6,82.6 44.2,102.2 8.6,5.2 18.4,3.7 28.9,2.1 5.1,-0.8 10.3,-1.6 15.4,-1.6 5.1,0 10.4,0.8 15.4,1.6 5,0.8 9.9,1.5 14.5,1.5 5.1,0 9.9,-0.9 14.3,-3.6 32.6,-19.6 44.2,-67.3 44.2,-102.2 0.1,-36.8 -23,-48.1 -42.4,-51.1 z"
           id="path4035"
           inkscape:connector-curvature="0"
           style="fill:#ffffff" /></g><g
         id="g4041"><path
           class="st2"
           d="m 212.6,113.1 c -11.6,-1.8 -20.7,0.9 -28.8,3.2 -5.8,1.7 -11.2,3.3 -17.2,3.3 -6,0 -11.4,-1.6 -17.2,-3.3 -8,-2.3 -17.2,-5 -28.8,-3.2 -19.4,3 -42.5,14.2 -42.5,51.1 0,34.9 11.6,82.6 44.2,102.2 8.6,5.2 18.4,3.7 28.9,2.1 5.1,-0.8 10.3,-1.6 15.4,-1.6 5.1,0 10.4,0.8 15.4,1.6 5,0.8 9.9,1.5 14.5,1.5 5.1,0 9.9,-0.9 14.3,-3.6 32.6,-19.6 44.2,-67.3 44.2,-102.2 0.1,-36.8 -23,-48.1 -42.4,-51.1 z"
           id="path4039"
           inkscape:connector-curvature="0"
           style="fill:#ffffff" /></g></g><g
       id="g4047"><path
         class="st2"
         d="m 213.8,69.8 c 0.4,-3.2 0.4,-6.3 0,-9.2 -2.9,-0.4 -6,-0.4 -9.2,0 -21,2.7 -40.2,21.9 -42.9,42.9 -0.4,3.2 -0.4,6.3 0,9.2 2.9,0.4 6,0.4 9.2,0 21,-2.7 40.2,-21.9 42.9,-42.9 z"
         id="path4045"
         inkscape:connector-curvature="0"
         style="fill:#ffffff" /></g></g></svg>